# xmcd
#
# Track frame offsets:
#	150
#	19562
#	36887
#	58077
#	75475
#	92327
#	109122
#	125497
#	146632
#	164434
#	186420
#
# Disc length: 2762 seconds
#
# Revision: 4
# Processed by: cddbd v1.5.2PL0 Copyright (c) Steve Scherf et al.
# Submitted via: EasyCDDAExtractor 12.1.0.1
#
DISCID=8c0ac80b
DTITLE=이소라 - 꽃
DYEAR=2000
DGENRE=Blues
TTITLE0=제발
TTITLE1=그대와 춤을
TTITLE2=Bye-Bye
TTITLE3=Rendez-vous (랑데뷰)
TTITLE4=Comedy
TTITLE5=너에게 나를 바친다
TTITLE6=It's gonna be rolling
TTITLE7=My Romeo
TTITLE8=가을시선
TTITLE9=Tattoo (문신)
TTITLE10=Amen
EXTD=AI¼O¶o 4Ay YEAR: 2000
EXTT0=
EXTT1=
EXTT2=
EXTT3=
EXTT4=
EXTT5=
EXTT6=
EXTT7=
EXTT8=
EXTT9=
EXTT10=
PLAYORDER=
